<svg xmlns="http://www.w3.org/2000/svg" width="1280" height="640" viewBox="0 0 1280 640" role="img" aria-labelledby="title desc">
  <title id="title">Cloudflare Auth Hasher Template</title>
  <desc id="desc">Private password hashing template for Cloudflare Workers using WorkerEntrypoint RPC, Argon2id, and a Rust/Wasm kernel.</desc>
  <defs>
    <linearGradient id="bg" x1="0%" y1="0%" x2="100%" y2="100%">
      <stop offset="0%" stop-color="#fff7ed" />
      <stop offset="100%" stop-color="#ffedd5" />
    </linearGradient>
  </defs>
  <rect width="1280" height="640" fill="url(#bg)" />
  <rect x="72" y="72" width="1136" height="496" rx="32" fill="#111827" />
  <rect x="120" y="132" width="260" height="44" rx="22" fill="#f97316" />
  <text x="160" y="161" fill="#111827" font-family="ui-monospace, SFMono-Regular, Menlo, monospace" font-size="22">Cloudflare Workers</text>
  <text x="120" y="250" fill="#ffffff" font-family="Georgia, 'Times New Roman', serif" font-size="62">Private password hashing</text>
  <text x="120" y="330" fill="#ffffff" font-family="Georgia, 'Times New Roman', serif" font-size="62">with RPC + Rust/Wasm</text>
  <text x="120" y="414" fill="#d1d5db" font-family="ui-sans-serif, system-ui, sans-serif" font-size="28">Argon2id, WorkerEntrypoint RPC, Better Auth migration helpers</text>
  <rect x="120" y="466" width="286" height="56" rx="28" fill="#1f2937" stroke="#f97316" stroke-width="2" />
  <text x="161" y="501" fill="#f97316" font-family="ui-monospace, SFMono-Regular, Menlo, monospace" font-size="24">standard-2026q1</text>
  <path d="M852 184h196c18 0 32 14 32 32v56c0 18-14 32-32 32H852c-18 0-32-14-32-32v-56c0-18 14-32 32-32Zm-74 150h344c18 0 32 14 32 32v56c0 18-14 32-32 32H778c-18 0-32-14-32-32v-56c0-18 14-32 32-32Zm74 150h196c18 0 32 14 32 32v0c0 18-14 32-32 32H852c-18 0-32-14-32-32v0c0-18 14-32 32-32Z" fill="none" stroke="#fdba74" stroke-width="12" stroke-linejoin="round"/>
  <text x="876" y="243" fill="#fdba74" font-family="ui-monospace, SFMono-Regular, Menlo, monospace" font-size="24">Caller Worker</text>
  <text x="804" y="393" fill="#fdba74" font-family="ui-monospace, SFMono-Regular, Menlo, monospace" font-size="24">WorkerEntrypoint RPC</text>
  <text x="860" y="523" fill="#fdba74" font-family="ui-monospace, SFMono-Regular, Menlo, monospace" font-size="24">Rust/Wasm Kernel</text>
</svg>
